<?xml version="1.0" encoding="utf-8"?>
<svg version="1.1" id="Layer_1" x="0px" y="0px" viewBox="0 0 48 48" enable-background="new 0 0 48 48" xmlns="http://www.w3.org/2000/svg">
  <defs>
    <linearGradient gradientUnits="userSpaceOnUse" x1="23.781" y1="3.881" x2="23.781" y2="42.824" id="gradient-1" gradientTransform="matrix(0.013411, -1.012177, 1.043111, 0.012573, -4.36725, 47.489287)">
      <stop offset="0" style="stop-color: rgb(161, 85, 218);"/>
      <stop offset="1" style="stop-color: rgb(248, 117, 170);"/>
    </linearGradient>
  </defs>
  <path d="M 45.223 6.441 C 45.103 5.863 44.902 5.372 44.628 4.982 C 44.344 4.578 43.935 4.263 43.476 4.092 C 43.121 3.958 42.711 3.891 42.26 3.891 C 42.115 3.891 41.963 3.897 41.807 3.91 C 41.203 3.966 40.57 4.11 39.871 4.352 C 38.585 4.8 37.368 5.475 36.192 6.128 L 36.177 6.135 C 35.833 6.33 35.482 6.522 35.141 6.709 C 34.819 6.886 34.485 7.069 34.159 7.251 C 33.104 7.849 31.895 8.567 30.899 9.529 C 30.495 9.926 30.092 10.363 29.706 10.827 C 29.344 11.261 28.985 11.735 28.635 12.235 C 28.057 13.068 27.49 13.995 26.903 15.069 C 26.345 16.088 25.824 17.142 25.388 18.035 C 25.144 18.512 24.849 19.059 24.428 19.497 C 24.448 19.378 24.473 19.256 24.496 19.14 C 24.568 18.785 24.641 18.418 24.61 18.046 C 24.595 17.824 24.526 17.591 24.407 17.354 C 24.894 16.353 25.323 15.303 25.74 14.289 C 25.909 13.875 26.083 13.449 26.259 13.031 C 26.298 12.944 26.334 12.855 26.37 12.769 C 26.496 12.467 26.627 12.156 26.8 11.873 C 26.808 11.861 26.815 11.849 26.823 11.835 C 26.959 11.597 27.101 11.352 27.138 11.073 C 27.164 10.879 27.087 10.676 26.933 10.529 L 26.931 10.527 L 26.931 10.529 C 26.885 10.627 26.849 10.73 26.813 10.83 C 26.79 10.899 26.767 10.967 26.74 11.034 C 26.365 12.043 25.924 13.04 25.497 14.006 C 25.241 14.585 24.976 15.183 24.729 15.778 C 24.648 15.962 24.597 16.159 24.548 16.351 C 24.486 16.596 24.422 16.847 24.296 17.07 C 24.181 17.272 24.01 17.406 23.828 17.438 C 23.626 17.433 23.42 17.312 23.291 17.117 C 23.144 16.896 23.062 16.639 22.984 16.392 C 22.935 16.238 22.885 16.08 22.819 15.931 C 22.645 15.532 22.465 15.136 22.295 14.765 C 22.068 14.265 21.859 13.726 21.658 13.12 C 21.638 13.058 21.617 13 21.597 12.939 C 21.319 12.121 21.032 11.277 20.51 10.58 L 20.51 10.579 L 20.424 10.619 L 20.425 10.62 C 20.634 11.486 20.953 12.307 21.268 13.065 C 21.481 13.57 21.707 14.08 21.928 14.573 C 22.347 15.51 22.779 16.479 23.128 17.466 C 23.111 17.504 23.087 17.54 23.065 17.575 C 23.036 17.622 23.006 17.668 22.988 17.722 C 22.87 18.006 22.911 18.33 22.973 18.637 C 22.984 18.694 22.996 18.751 23.008 18.81 C 23.056 19.042 23.105 19.284 23.052 19.518 C 22.25 17.872 21.369 16.121 20.348 14.468 C 19.891 13.724 19.418 13.017 18.944 12.37 C 18.433 11.671 17.9 11.013 17.36 10.414 C 16.679 9.653 16.016 9.027 15.337 8.504 C 14.502 7.851 13.556 7.235 12.273 6.507 C 11.523 6.086 10.532 5.541 9.511 5.073 C 8.984 4.834 8.515 4.64 8.077 4.483 C 7.554 4.296 7.067 4.157 6.592 4.056 C 6.074 3.951 5.524 3.892 4.957 3.881 C 4.95 3.881 4.942 3.881 4.934 3.881 C 4.251 3.881 3.734 4.028 3.356 4.328 C 2.983 4.666 2.776 5.145 2.624 5.567 C 2.379 6.268 2.236 7.05 2.198 7.897 C 2.171 8.551 2.213 9.127 2.324 9.664 C 2.426 10.114 2.675 10.496 2.915 10.868 C 3.035 11.054 3.158 11.244 3.263 11.443 C 3.422 11.72 3.547 12.049 3.661 12.474 C 3.95 13.545 4.107 14.665 4.259 15.745 C 4.376 16.57 4.497 17.423 4.675 18.251 C 4.772 18.682 4.86 19.006 4.964 19.303 C 5.093 19.678 5.244 20 5.422 20.285 C 5.652 20.648 5.982 20.961 6.378 21.187 C 6.621 21.326 6.886 21.441 7.191 21.535 C 7.444 21.615 7.724 21.681 8.051 21.737 C 8.587 21.829 9.113 21.87 9.557 21.9 C 9.808 21.918 10.064 21.933 10.312 21.945 C 11.19 21.997 12.1 22.048 12.982 22.21 C 13.017 22.217 13.051 22.229 13.082 22.242 C 12.728 22.479 12.366 22.716 12.013 22.945 C 11.399 23.344 10.763 23.758 10.158 24.194 C 8.978 25.042 8.117 25.834 7.451 26.684 C 7.236 26.966 7.012 27.267 6.833 27.594 L 6.832 27.594 C 6.821 28.228 6.853 28.9 6.942 29.777 C 7.132 31.595 7.531 33.345 7.991 35.283 L 7.993 35.289 C 8.324 36.667 8.663 38.09 9.157 39.441 C 9.473 40.294 9.792 40.959 10.164 41.537 C 10.4 41.92 10.713 42.27 11.091 42.579 C 11.49 42.902 11.861 43.111 12.222 43.224 C 12.385 43.275 12.561 43.301 12.762 43.301 C 12.846 43.301 12.933 43.297 13.027 43.288 C 13.544 43.232 14.086 43.039 14.637 42.716 C 15.227 42.382 15.777 41.923 16.272 41.358 C 16.942 40.596 17.551 39.685 18.188 38.49 C 18.679 37.566 19.127 36.576 19.558 35.462 C 19.909 34.566 20.227 33.588 20.504 32.556 C 20.626 32.109 20.743 31.654 20.857 31.212 C 21.045 30.476 21.242 29.716 21.464 28.978 C 21.737 28.081 22.091 27.043 22.652 26.108 C 22.779 26.642 22.774 27.201 22.768 27.743 C 22.768 27.809 22.767 27.878 22.767 27.947 C 22.764 28.097 22.761 28.251 22.758 28.4 C 22.747 28.883 22.736 29.382 22.771 29.872 C 22.794 30.178 22.835 30.531 22.965 30.854 C 23.061 31.09 23.213 31.264 23.392 31.352 C 23.504 31.405 23.628 31.43 23.758 31.43 C 23.893 31.43 24.032 31.403 24.161 31.348 C 24.458 31.212 24.593 30.906 24.649 30.734 C 24.767 30.359 24.784 29.951 24.79 29.596 C 24.794 29.262 24.782 28.919 24.772 28.589 C 24.76 28.223 24.748 27.842 24.756 27.468 C 24.772 27.009 24.803 26.524 24.996 26.098 C 25.517 27.399 25.946 28.764 26.36 30.082 L 26.376 30.132 C 26.443 30.348 26.51 30.566 26.576 30.778 C 26.963 32.027 27.362 33.321 27.798 34.576 C 28.221 35.794 28.811 37.385 29.614 38.902 C 29.933 39.497 30.247 40.009 30.575 40.473 C 30.954 41.009 31.342 41.464 31.76 41.866 C 32.164 42.254 32.656 42.592 33.226 42.866 C 33.728 43.101 34.185 43.238 34.625 43.285 C 34.719 43.296 34.813 43.302 34.904 43.302 C 35.194 43.302 35.463 43.248 35.705 43.144 C 36.156 42.956 36.572 42.609 36.977 42.088 C 37.275 41.705 37.545 41.255 37.831 40.671 C 38.329 39.644 38.679 38.57 38.956 37.657 C 39.34 36.361 39.609 35.355 39.827 34.396 C 40.336 32.186 40.632 29.894 40.707 27.591 L 40.706 27.59 C 40.442 27.142 40.126 26.701 39.766 26.275 C 39.435 25.885 39.057 25.497 38.644 25.125 C 38.11 24.649 37.618 24.271 37.141 23.969 C 36.895 23.81 36.64 23.654 36.391 23.504 C 35.719 23.096 35.024 22.673 34.435 22.12 C 34.872 22.088 35.315 22.068 35.745 22.049 C 36.047 22.036 36.36 22.021 36.667 22.004 C 37.848 21.937 38.91 21.861 39.952 21.616 C 40.478 21.483 41.082 21.298 41.578 20.915 C 41.913 20.653 42.178 20.263 42.411 19.688 C 42.659 19.07 42.807 18.43 42.949 17.773 C 42.975 17.651 43 17.528 43.025 17.406 C 43.097 17.057 43.171 16.696 43.236 16.339 C 43.314 15.893 43.375 15.437 43.433 14.996 C 43.467 14.751 43.5 14.499 43.537 14.25 C 43.691 13.214 43.863 12.209 44.304 11.302 C 44.391 11.116 44.488 10.93 44.58 10.748 C 44.76 10.398 44.947 10.036 45.087 9.659 C 45.269 9.172 45.365 8.691 45.371 8.222 C 45.38 7.549 45.331 6.966 45.223 6.441 Z" style="paint-order: fill; fill: url('#gradient-1');"/>
</svg>